{
  "accessors": [
    {
      "bufferView": 2,
      "componentType": 5126,
      "count": 9442,
      "max": [
        0.78712117671966553,
        -0.47004544734954834,
        0.81788021326065063
      ],
      "min": [
        -0.78171682357788086,
        -0.78409242630004883,
        -0.81769013404846191
      ],
      "type": "VEC3"
    },
    {
      "bufferView": 2,
      "byteOffset": 113304,
      "componentType": 5126,
      "count": 9442,
      "max": [
        0.97761869430541992,
        0.99936306476593018,
        0.99979186058044434
      ],
      "min": [
        -0.9971126914024353,
        -0.99998927116394043,
        -0.99521398544311523
      ],
      "type": "VEC3"
    },
    {
      "bufferView": 1,
      "componentType": 5126,
      "count": 9442,
      "max": [
        0,
        0
      ],
      "min": [
        0,
        0
      ],
      "type": "VEC2"
    },
    {
      "bufferView": 0,
      "componentType": 5125,
      "count": 56640,
      "max": [
        9441
      ],
      "min": [
        0
      ],
      "type": "SCALAR"
    },
    {
      "bufferView": 2,
      "byteOffset": 226608,
      "componentType": 5126,
      "count": 1874,
      "max": [
        0.10243161022663116,
        -0.61334705352783203,
        0.74414438009262085
      ],
      "min": [
        -0.082230105996131897,
        -0.74443227052688599,
        0.63860517740249634
      ],
      "type": "VEC3"
    },
    {
      "bufferView": 2,
      "byteOffset": 249096,
      "componentType": 5126,
      "count": 1874,
      "max": [
        1,
        0.98524898290634155,
        0.99858903884887695
      ],
      "min": [
        -1,
        -0.983894944190979,
        -0.99858903884887695
      ],
      "type": "VEC3"
    },
    {
      "bufferView": 1,
      "byteOffset": 75536,
      "componentType": 5126,
      "count": 1874,
      "max": [
        1.0000002384185791,
        1.0000001192092896
      ],
      "min": [
        0,
        0
      ],
      "type": "VEC2"
    },
    {
      "bufferView": 0,
      "byteOffset": 226560,
      "componentType": 5125,
      "count": 8640,
      "max": [
        1873
      ],
      "min": [
        0
      ],
      "type": "SCALAR"
    },
    {
      "bufferView": 2,
      "byteOffset": 271584,
      "componentType": 5126,
      "count": 559,
      "max": [
        1.0000002384185791,
        1,
        1.0000003576278687
      ],
      "min": [
        -0.99999982118606567,
        -1,
        -1
      ],
      "type": "VEC3"
    },
    {
      "bufferView": 2,
      "byteOffset": 278292,
      "componentType": 5126,
      "count": 559,
      "max": [
        1,
        1,
        1
      ],
      "min": [
        -1,
        -1,
        -1
      ],
      "type": "VEC3"
    },
    {
      "bufferView": 1,
      "byteOffset": 90528,
      "componentType": 5126,
      "count": 559,
      "max": [
        1.0000002384185791,
        1
      ],
      "min": [
        0,
        0
      ],
      "type": "VEC2"
    },
    {
      "bufferView": 0,
      "byteOffset": 261120,
      "componentType": 5125,
      "count": 2880,
      "max": [
        558
      ],
      "min": [
        0
      ],
      "type": "SCALAR"
    },
    {
      "bufferView": 2,
      "byteOffset": 285000,
      "componentType": 5126,
      "count": 637,
      "max": [
        17.695489883422852,
        0.51043599843978882,
        34.647567749023438
      ],
      "min": [
        -17.695505142211914,
        -0.5203700065612793,
        -0.74342900514602661
      ],
      "type": "VEC3"
    },
    {
      "bufferView": 2,
      "byteOffset": 292644,
      "componentType": 5126,
      "count": 637,
      "max": [
        1,
        0.99994230270385742,
        1
      ],
      "min": [
        -1,
        -0.99994230270385742,
        -1
      ],
      "type": "VEC3"
    },
    {
      "bufferView": 1,
      "byteOffset": 95000,
      "componentType": 5126,
      "count": 637,
      "max": [
        1,
        1
      ],
      "min": [
        8.8817841970012523e-16,
        2.2204460492503131e-16
      ],
      "type": "VEC2"
    },
    {
      "bufferView": 0,
      "byteOffset": 272640,
      "componentType": 5125,
      "count": 3456,
      "max": [
        636
      ],
      "min": [
        0
      ],
      "type": "SCALAR"
    },
    {
      "bufferView": 2,
      "byteOffset": 300288,
      "componentType": 5126,
      "count": 130,
      "max": [
        1,
        1,
        1
      ],
      "min": [
        -1,
        -1,
        -1
      ],
      "type": "VEC3"
    },
    {
      "bufferView": 2,
      "byteOffset": 301848,
      "componentType": 5126,
      "count": 130,
      "max": [
        1,
        1,
        1
      ],
      "min": [
        -1,
        -1,
        -1
      ],
      "type": "VEC3"
    },
    {
      "bufferView": 1,
      "byteOffset": 100096,
      "componentType": 5126,
      "count": 130,
      "max": [
        1,
        1
      ],
      "min": [
        0,
        0.01000000536441803
      ],
      "type": "VEC2"
    },
    {
      "bufferView": 0,
      "byteOffset": 286464,
      "componentType": 5125,
      "count": 372,
      "max": [
        129
      ],
      "min": [
        0
      ],
      "type": "SCALAR"
    },
    {
      "bufferView": 2,
      "byteOffset": 303408,
      "componentType": 5126,
      "count": 559,
      "max": [
        1.0000002384185791,
        1,
        1.0000003576278687
      ],
      "min": [
        -0.99999982118606567,
        -1,
        -1
      ],
      "type": "VEC3"
    },
    {
      "bufferView": 2,
      "byteOffset": 310116,
      "componentType": 5126,
      "count": 559,
      "max": [
        1,
        1,
        1
      ],
      "min": [
        -1,
        -1,
        -1
      ],
      "type": "VEC3"
    },
    {
      "bufferView": 1,
      "byteOffset": 101136,
      "componentType": 5126,
      "count": 559,
      "max": [
        1.0000002384185791,
        1
      ],
      "min": [
        0,
        0
      ],
      "type": "VEC2"
    },
    {
      "bufferView": 0,
      "byteOffset": 287952,
      "componentType": 5125,
      "count": 2880,
      "max": [
        558
      ],
      "min": [
        0
      ],
      "type": "SCALAR"
    },
    {
      "bufferView": 2,
      "byteOffset": 316824,
      "componentType": 5126,
      "count": 4881,
      "max": [
        10.364538192749023,
        0.57397627830505371,
        0.82961195707321167
      ],
      "min": [
        -8.0010747909545898,
        -0.26558935642242432,
        -49.078823089599609
      ],
      "type": "VEC3"
    },
    {
      "bufferView": 2,
      "byteOffset": 375396,
      "componentType": 5126,
      "count": 4881,
      "max": [
        0.99999606609344482,
        1,
        0.99985861778259277
      ],
      "min": [
        -0.99999892711639404,
        -1,
        -0.99903792142868042
      ],
      "type": "VEC3"
    },
    {
      "bufferView": 1,
      "byteOffset": 105608,
      "componentType": 5126,
      "count": 4881,
      "max": [
        1.0000001192092896,
        1.0000002384185791
      ],
      "min": [
        0,
        0
      ],
      "type": "VEC2"
    },
    {
      "bufferView": 0,
      "byteOffset": 299472,
      "componentType": 5125,
      "count": 14976,
      "max": [
        4880
      ],
      "min": [
        0
      ],
      "type": "SCALAR"
    },
    {
      "bufferView": 2,
      "byteOffset": 433968,
      "componentType": 5126,
      "count": 4881,
      "max": [
        10.364538192749023,
        0.57397627830505371,
        0.82961195707321167
      ],
      "min": [
        -8.0010747909545898,
        -0.26558935642242432,
        -49.078823089599609
      ],
      "type": "VEC3"
    },
    {
      "bufferView": 2,
      "byteOffset": 492540,
      "componentType": 5126,
      "count": 4881,
      "max": [
        0.99999606609344482,
        1,
        0.99985861778259277
      ],
      "min": [
        -0.99999892711639404,
        -1,
        -0.99903792142868042
      ],
      "type": "VEC3"
    },
    {
      "bufferView": 1,
      "byteOffset": 144656,
      "componentType": 5126,
      "count": 4881,
      "max": [
        1.0000001192092896,
        1.0000002384185791
      ],
      "min": [
        0,
        0
      ],
      "type": "VEC2"
    },
    {
      "bufferView": 0,
      "byteOffset": 359376,
      "componentType": 5125,
      "count": 14976,
      "max": [
        4880
      ],
      "min": [
        0
      ],
      "type": "SCALAR"
    }
  ],
  "asset": {
    "extras": {
      "author": "321_Blender (https://sketchfab.com/321_Blender)",
      "license": "CC-BY-4.0 (http://creativecommons.org/licenses/by/4.0/)",
      "source": "https://sketchfab.com/3d-models/pea-angel-costume-9401504fa2a64773819f70c3703c0803",
      "title": "Pea Angel Costume"
    },
    "generator": "Sketchfab-9.72.0",
    "version": "2.0"
  },
  "bufferViews": [
    {
      "buffer": 0,
      "byteLength": 419280,
      "byteOffset": 0,
      "name": "floatBufferViews",
      "target": 34963
    },
    {
      "buffer": 0,
      "byteLength": 183704,
      "byteOffset": 419280,
      "byteStride": 8,
      "name": "floatBufferViews",
      "target": 34962
    },
    {
      "buffer": 0,
      "byteLength": 551112,
      "byteOffset": 602984,
      "byteStride": 12,
      "name": "floatBufferViews",
      "target": 34962
    }
  ],
  "buffers": [
    {
      "byteLength": 1154096,
      "uri": "scene.bin"
    }
  ],
  "materials": [
    {
      "doubleSided": true,
      "name": "material_0",
      "pbrMetallicRoughness": {
        "baseColorFactor": [
          1,
          1,
          1,
          1
        ],
        "metallicFactor": 0,
        "roughnessFactor": 0.59999999999999998
      }
    },
    {
      "doubleSided": true,
      "emissiveFactor": [
        0,
        0,
        0
      ],
      "name": "Material.001",
      "pbrMetallicRoughness": {
        "baseColorFactor": [
          0.55201140150000005,
          0.1247718176,
          0.0040247169999999997,
          1
        ],
        "metallicFactor": 0.5,
        "roughnessFactor": 1
      }
    },
    {
      "doubleSided": true,
      "emissiveFactor": [
        0,
        0,
        0
      ],
      "name": "Material.002",
      "pbrMetallicRoughness": {
        "baseColorFactor": [
          0.30528358480000001,
          0.30528358480000001,
          0.30528358480000001,
          1
        ],
        "metallicFactor": 0,
        "roughnessFactor": 1
      }
    },
    {
      "doubleSided": true,
      "emissiveFactor": [
        0,
        0,
        0
      ],
      "name": "Material.003",
      "pbrMetallicRoughness": {
        "baseColorFactor": [
          0.0356013149,
          0.0356013149,
          0.0356013149,
          1
        ],
        "metallicFactor": 0.5,
        "roughnessFactor": 1
      }
    },
    {
      "doubleSided": true,
      "emissiveFactor": [
        0,
        0,
        0
      ],
      "name": "Material.004",
      "pbrMetallicRoughness": {
        "baseColorFactor": [
          0.42950400459999999,
          0.4467292081,
          0.1196041068,
          1
        ],
        "metallicFactor": 0,
        "roughnessFactor": 1
      }
    }
  ],
  "meshes": [
    {
      "primitives": [
        {
          "attributes": {
            "NORMAL": 1,
            "POSITION": 0,
            "TEXCOORD_0": 2
          },
          "indices": 3,
          "material": 1,
          "mode": 4
        }
      ]
    },
    {
      "primitives": [
        {
          "attributes": {
            "NORMAL": 5,
            "POSITION": 4,
            "TEXCOORD_0": 6
          },
          "indices": 7,
          "material": 2,
          "mode": 4
        }
      ]
    },
    {
      "primitives": [
        {
          "attributes": {
            "NORMAL": 9,
            "POSITION": 8,
            "TEXCOORD_0": 10
          },
          "indices": 11,
          "material": 3,
          "mode": 4
        }
      ]
    },
    {
      "primitives": [
        {
          "attributes": {
            "NORMAL": 13,
            "POSITION": 12,
            "TEXCOORD_0": 14
          },
          "indices": 15,
          "material": 4,
          "mode": 4
        }
      ]
    },
    {
      "primitives": [
        {
          "attributes": {
            "NORMAL": 17,
            "POSITION": 16,
            "TEXCOORD_0": 18
          },
          "indices": 19,
          "material": 3,
          "mode": 4
        }
      ]
    },
    {
      "primitives": [
        {
          "attributes": {
            "NORMAL": 21,
            "POSITION": 20,
            "TEXCOORD_0": 22
          },
          "indices": 23,
          "material": 3,
          "mode": 4
        }
      ]
    },
    {
      "primitives": [
        {
          "attributes": {
            "NORMAL": 25,
            "POSITION": 24,
            "TEXCOORD_0": 26
          },
          "indices": 27,
          "material": 0,
          "mode": 4
        }
      ]
    },
    {
      "primitives": [
        {
          "attributes": {
            "NORMAL": 29,
            "POSITION": 28,
            "TEXCOORD_0": 30
          },
          "indices": 31,
          "material": 0,
          "mode": 4
        }
      ]
    }
  ],
  "nodes": [
    {
      "children": [
        1
      ],
      "name": "RootNode (gltf orientation matrix)",
      "rotation": [
        -0.70710678118654746,
        -0,
        -0,
        0.70710678118654757
      ]
    },
    {
      "children": [
        2
      ],
      "name": "RootNode (model correction matrix)"
    },
    {
      "children": [
        3
      ],
      "name": "root"
    },
    {
      "children": [
        4,
        7,
        10,
        12,
        14,
        16
      ],
      "matrix": [
        1,
        0,
        0,
        0,
        0,
        2.2204460492503131e-16,
        1,
        0,
        0,
        -1,
        2.2204460492503131e-16,
        0,
        0,
        0,
        0,
        1
      ],
      "name": "GLTF_SceneRootNode"
    },
    {
      "children": [
        5,
        6
      ],
      "matrix": [
        1.602092981338501,
        0,
        0,
        0,
        0,
        1.602092981338501,
        0,
        0,
        0,
        0,
        1.602092981338501,
        0,
        0.60732465982437134,
        2.4930093288421631,
        1.6061909198760986,
        1
      ],
      "name": "Belt_2"
    },
    {
      "mesh": 0,
      "name": ""
    },
    {
      "mesh": 1,
      "name": ""
    },
    {
      "children": [
        8,
        9
      ],
      "matrix": [
        0.068162038922309875,
        0,
        0,
        0,
        0,
        0.067547435491474572,
        -0.0091327711332085809,
        0,
        0,
        0.0091327711332085809,
        0.067547435491474572,
        0,
        0.60732555389404297,
        4.4542446136474609,
        0.081927776336669922,
        1
      ],
      "name": "Halo_3"
    },
    {
      "mesh": 2,
      "name": ""
    },
    {
      "mesh": 3,
      "name": ""
    },
    {
      "children": [
        11
      ],
      "matrix": [
        0.021851791068911552,
        0,
        0,
        0,
        0,
        1.3393585773955108,
        -0.067848971918035336,
        0,
        0,
        0.0011055462482615131,
        0.021823806735130274,
        0,
        0.60732555389404297,
        3.072810173034668,
        0.14952898025512695,
        1
      ],
      "name": "Rod_4"
    },
    {
      "mesh": 4,
      "name": ""
    },
    {
      "children": [
        13
      ],
      "matrix": [
        0.10254760831594467,
        0,
        0,
        0,
        0,
        0.10254760831594467,
        0,
        0,
        0,
        0,
        0.10254760831594467,
        0,
        0.60732555389404297,
        1.7285053730010986,
        0.24576887488365173,
        1
      ],
      "name": "Sphere_5"
    },
    {
      "mesh": 5,
      "name": ""
    },
    {
      "children": [
        15
      ],
      "matrix": [
        -0.076319305323708134,
        -0.083353915723374208,
        0.022214367319386856,
        0,
        -2.3097883194298097e-08,
        -0.029660420167425684,
        -0.11129346563078753,
        0,
        0.0862632682917229,
        -0.073745316042953743,
        0.019653580327627308,
        0,
        0.50850844383239746,
        1.742156982421875,
        0.29235893487930298,
        1
      ],
      "name": "Wing 1_6"
    },
    {
      "mesh": 6,
      "name": ""
    },
    {
      "children": [
        17
      ],
      "matrix": [
        0.076319292234878558,
        -0.08335390259604171,
        0.022214345653864192,
        0,
        -5.5435968518831507e-09,
        0.029660412526493676,
        0.11129346766714673,
        0,
        -0.086263261188177509,
        -0.073745310900003844,
        0.0196535871406367,
        0,
        0.70683842897415161,
        1.742156982421875,
        0.25907456874847412,
        1
      ],
      "name": "Wing 2_7"
    },
    {
      "mesh": 7,
      "name": ""
    }
  ],
  "scene": 0,
  "scenes": [
    {
      "name": "OSG_Scene",
      "nodes": [
        0
      ]
    }
  ]
}

