{
  "accessors": [
    {
      "bufferView": 2,
      "componentType": 5126,
      "count": 18702,
      "max": [
        1.002409815788269,
        1.0043325424194336,
        1.0544191598892212
      ],
      "min": [
        -1.0024082660675049,
        -1.0069057941436768,
        -1.0569182634353638
      ],
      "type": "VEC3"
    },
    {
      "bufferView": 2,
      "byteOffset": 224424,
      "componentType": 5126,
      "count": 18702,
      "max": [
        0.9999973773956299,
        1.0,
        0.9998311996459961
      ],
      "min": [
        -0.9999972581863403,
        -1.0,
        -0.9998310804367065
      ],
      "type": "VEC3"
    },
    {
      "bufferView": 1,
      "componentType": 5126,
      "count": 18702,
      "max": [
        0.9985331892967224,
        1.0
      ],
      "min": [
        0.0,
        0.0
      ],
      "type": "VEC2"
    },
    {
      "bufferView": 1,
      "byteOffset": 149616,
      "componentType": 5126,
      "count": 18702,
      "max": [
        0.9985331892967224,
        1.0
      ],
      "min": [
        0.0,
        0.0
      ],
      "type": "VEC2"
    },
    {
      "bufferView": 0,
      "componentType": 5125,
      "count": 78804,
      "type": "SCALAR"
    },
    {
      "bufferView": 2,
      "byteOffset": 448848,
      "componentType": 5126,
      "count": 1787,
      "max": [
        1.049918532371521,
        1.0499184131622314,
        1.001763939857483
      ],
      "min": [
        -1.049918532371521,
        -1.0797940492630005,
        -1.0039548873901367
      ],
      "type": "VEC3"
    },
    {
      "bufferView": 2,
      "byteOffset": 470292,
      "componentType": 5126,
      "count": 1787,
      "max": [
        1.0,
        1.0,
        1.0
      ],
      "min": [
        -1.0,
        -1.0,
        -1.0
      ],
      "type": "VEC3"
    },
    {
      "bufferView": 1,
      "byteOffset": 299232,
      "componentType": 5126,
      "count": 1787,
      "max": [
        1.0,
        0.9822120666503906
      ],
      "min": [
        0.0,
        0.0
      ],
      "type": "VEC2"
    },
    {
      "bufferView": 1,
      "byteOffset": 313528,
      "componentType": 5126,
      "count": 1787,
      "max": [
        1.0,
        0.9822120666503906
      ],
      "min": [
        0.0,
        0.0
      ],
      "type": "VEC2"
    },
    {
      "bufferView": 0,
      "byteOffset": 315216,
      "componentType": 5125,
      "count": 5535,
      "type": "SCALAR"
    },
    {
      "bufferView": 2,
      "byteOffset": 491736,
      "componentType": 5126,
      "count": 3404,
      "max": [
        0.1915801465511322,
        -1.020782709121704,
        0.6229579448699951
      ],
      "min": [
        -0.18800486624240875,
        -1.108033537864685,
        -0.6206462383270264
      ],
      "type": "VEC3"
    },
    {
      "bufferView": 2,
      "byteOffset": 532584,
      "componentType": 5126,
      "count": 3404,
      "max": [
        0.9999998807907104,
        0.9999997615814209,
        1.0
      ],
      "min": [
        -0.9999998807907104,
        -0.9999998807907104,
        -1.0
      ],
      "type": "VEC3"
    },
    {
      "bufferView": 1,
      "byteOffset": 327824,
      "componentType": 5126,
      "count": 3404,
      "max": [
        0.9999335408210754,
        1.0
      ],
      "min": [
        0.0,
        0.0
      ],
      "type": "VEC2"
    },
    {
      "bufferView": 0,
      "byteOffset": 337356,
      "componentType": 5125,
      "count": 17088,
      "type": "SCALAR"
    }
  ],
  "asset": {
    "extras": {
      "author": "LavinaHusky (https://sketchfab.com/LavinaHusky)",
      "license": "CC-BY-4.0 (http://creativecommons.org/licenses/by/4.0/)",
      "source": "https://sketchfab.com/3d-models/leather-collar-aac1fff2db8e4b808c1a553f9146d261",
      "title": "Leather collar"
    },
    "generator": "Sketchfab-10.79.1",
    "version": "2.0"
  },
  "bufferViews": [
    {
      "buffer": 0,
      "byteLength": 405708,
      "name": "floatBufferViews",
      "target": 34963
    },
    {
      "buffer": 0,
      "byteLength": 355056,
      "byteOffset": 405708,
      "byteStride": 8,
      "name": "floatBufferViews",
      "target": 34962
    },
    {
      "buffer": 0,
      "byteLength": 573432,
      "byteOffset": 760764,
      "byteStride": 12,
      "name": "floatBufferViews",
      "target": 34962
    }
  ],
  "buffers": [
    {
      "byteLength": 1334196,
      "uri": "scene.bin"
    }
  ],
  "extensionsRequired": [
    "KHR_materials_pbrSpecularGlossiness"
  ],
  "extensionsUsed": [
    "KHR_materials_pbrSpecularGlossiness"
  ],
  "images": [
    {
      "uri": "textures/Material.006_diffuse.png"
    }
  ],
  "materials": [
    {
      "doubleSided": true,
      "extensions": {
        "KHR_materials_pbrSpecularGlossiness": {
          "diffuseFactor": [
            0.44227298576727603,
            0.005971221367372714,
            0.0010523458967899605,
            1.0
          ],
          "glossinessFactor": 0.6213192151712481,
          "specularFactor": [
            0.0,
            0.0,
            0.0
          ]
        }
      },
      "name": "Material.002"
    },
    {
      "doubleSided": true,
      "extensions": {
        "KHR_materials_pbrSpecularGlossiness": {
          "diffuseFactor": [
            1.0,
            1.0,
            1.0,
            1.0
          ],
          "diffuseTexture": {
            "index": 0
          },
          "glossinessFactor": 0.1788854381999832,
          "specularFactor": [
            0.0,
            0.0,
            0.0
          ]
        }
      },
      "name": "Material.006"
    },
    {
      "doubleSided": true,
      "extensions": {
        "KHR_materials_pbrSpecularGlossiness": {
          "diffuseFactor": [
            0.036828703216505894,
            0.03745634235726134,
            0.04627483633120541,
            1.0
          ],
          "glossinessFactor": 0.8772549842219507,
          "specularFactor": [
            0.5735121977727207,
            0.5735121977727207,
            0.5735121977727207
          ]
        }
      },
      "name": "Material.005"
    }
  ],
  "meshes": [
    {
      "name": "0",
      "primitives": [
        {
          "attributes": {
            "NORMAL": 1,
            "POSITION": 0,
            "TEXCOORD_0": 2,
            "TEXCOORD_1": 3
          },
          "indices": 4,
          "material": 0,
          "mode": 4
        }
      ]
    },
    {
      "name": "1",
      "primitives": [
        {
          "attributes": {
            "NORMAL": 6,
            "POSITION": 5,
            "TEXCOORD_0": 7,
            "TEXCOORD_1": 8
          },
          "indices": 9,
          "material": 1,
          "mode": 4
        }
      ]
    },
    {
      "name": "2",
      "primitives": [
        {
          "attributes": {
            "NORMAL": 11,
            "POSITION": 10,
            "TEXCOORD_0": 12
          },
          "indices": 13,
          "material": 2,
          "mode": 4
        }
      ]
    }
  ],
  "nodes": [
    {
      "children": [
        1
      ],
      "matrix": [
        1.0,
        0.0,
        0.0,
        0.0,
        0.0,
        2.220446049250313e-16,
        -1.0,
        0.0,
        0.0,
        1.0,
        2.220446049250313e-16,
        0.0,
        0.0,
        0.0,
        0.0,
        1.0
      ],
      "name": "Sketchfab_model"
    },
    {
      "children": [
        2
      ],
      "matrix": [
        1.0,
        0.0,
        0.0,
        0.0,
        0.0,
        0.0,
        1.0,
        0.0,
        0.0,
        -1.0,
        0.0,
        0.0,
        0.0,
        0.0,
        0.0,
        1.0
      ],
      "name": "3af18a7a31ae40818c48cc53a12f3a38.fbx"
    },
    {
      "children": [
        3
      ],
      "name": "RootNode"
    },
    {
      "children": [
        4,
        5,
        6
      ],
      "matrix": [
        7.168407242618908,
        -7.26506564546677e-16,
        -10.949824462360034,
        0.0,
        -10.949824462360022,
        -5.720762578438476e-07,
        -7.168407242618901,
        0.0,
        -1.0874577514534767e-07,
        2.973513603210446,
        -7.119146107056811e-08,
        0.0,
        0.0,
        0.0,
        0.0,
        1.0
      ],
      "name": "Cylinder"
    },
    {
      "mesh": 0,
      "name": "0"
    },
    {
      "mesh": 1,
      "name": "1"
    },
    {
      "mesh": 2,
      "name": "2"
    }
  ],
  "samplers": [
    {
      "magFilter": 9729,
      "minFilter": 9987,
      "wrapS": 10497,
      "wrapT": 10497
    }
  ],
  "scene": 0,
  "scenes": [
    {
      "name": "Sketchfab_Scene",
      "nodes": [
        0
      ]
    }
  ],
  "textures": [
    {
      "sampler": 0,
      "source": 0
    }
  ]
}
