{
  "accessors": [
    {
      "bufferView": 2,
      "componentType": 5126,
      "count": 7342,
      "max": [
        0.16288404166698456,
        0.10136563330888748,
        0.057101402431726456
      ],
      "min": [
        -0.16288404166698456,
        0.04934389516711235,
        -0.05778975039720535
      ],
      "type": "VEC3"
    },
    {
      "bufferView": 2,
      "byteOffset": 88104,
      "componentType": 5126,
      "count": 7342,
      "max": [
        1.0,
        1.0,
        1.0
      ],
      "min": [
        -1.0,
        -1.0,
        -1.0
      ],
      "type": "VEC3"
    },
    {
      "bufferView": 1,
      "componentType": 5126,
      "count": 7342,
      "max": [
        0.9506837725639343,
        0.9995877742767334
      ],
      "min": [
        0.0002806827542372048,
        0.0004156935028731823
      ],
      "type": "VEC2"
    },
    {
      "bufferView": 1,
      "byteOffset": 58736,
      "componentType": 5126,
      "count": 7342,
      "max": [
        0.23335246741771698,
        0.9298948645591736
      ],
      "min": [
        0.023915253579616547,
        0.052479472011327744
      ],
      "type": "VEC2"
    },
    {
      "bufferView": 0,
      "componentType": 5125,
      "count": 31488,
      "type": "SCALAR"
    },
    {
      "bufferView": 2,
      "byteOffset": 176208,
      "componentType": 5126,
      "count": 7607,
      "max": [
        0.2648783326148987,
        0.10026149451732635,
        0.08499205857515335
      ],
      "min": [
        -0.2648783326148987,
        -0.00011517792154336348,
        -0.08499253541231155
      ],
      "type": "VEC3"
    },
    {
      "bufferView": 2,
      "byteOffset": 267492,
      "componentType": 5126,
      "count": 7607,
      "max": [
        1.0,
        1.0,
        1.0
      ],
      "min": [
        -1.0,
        -1.0,
        -1.0
      ],
      "type": "VEC3"
    },
    {
      "bufferView": 1,
      "byteOffset": 117472,
      "componentType": 5126,
      "count": 7607,
      "max": [
        1.2583673000335693,
        1.304142951965332
      ],
      "min": [
        -1.1125311851501465,
        0.20580007135868073
      ],
      "type": "VEC2"
    },
    {
      "bufferView": 1,
      "byteOffset": 178328,
      "componentType": 5126,
      "count": 7607,
      "max": [
        0.9870305061340332,
        0.9909278154373169
      ],
      "min": [
        0.27016690373420715,
        0.010488125495612621
      ],
      "type": "VEC2"
    },
    {
      "bufferView": 1,
      "byteOffset": 239184,
      "componentType": 5126,
      "count": 7607,
      "max": [
        1.2583673000335693,
        1.304142951965332
      ],
      "min": [
        -1.1125311851501465,
        0.20580007135868073
      ],
      "type": "VEC2"
    },
    {
      "bufferView": 0,
      "byteOffset": 125952,
      "componentType": 5125,
      "count": 25920,
      "type": "SCALAR"
    }
  ],
  "asset": {
    "extras": {
      "author": "Jhon Maycon_22 (https://sketchfab.com/JHON_22)",
      "license": "CC-BY-4.0 (http://creativecommons.org/licenses/by/4.0/)",
      "source": "https://sketchfab.com/3d-models/dog-water-and-food-rack-ee5fd6d2b434427a81e3600281d7e7d3",
      "title": "Dog Water And Food Rack"
    },
    "generator": "Sketchfab-10.72.0",
    "version": "2.0"
  },
  "bufferViews": [
    {
      "buffer": 0,
      "byteLength": 229632,
      "name": "floatBufferViews",
      "target": 34963
    },
    {
      "buffer": 0,
      "byteLength": 300040,
      "byteOffset": 229632,
      "byteStride": 8,
      "name": "floatBufferViews",
      "target": 34962
    },
    {
      "buffer": 0,
      "byteLength": 358776,
      "byteOffset": 529672,
      "byteStride": 12,
      "name": "floatBufferViews",
      "target": 34962
    }
  ],
  "buffers": [
    {
      "byteLength": 888448,
      "uri": "scene.bin"
    }
  ],
  "images": [
    {
      "uri": "textures/wood_baseColor.jpeg"
    }
  ],
  "materials": [
    {
      "doubleSided": true,
      "name": "chrome",
      "pbrMetallicRoughness": {
        "baseColorFactor": [
          0.701102,
          0.701102,
          0.701102,
          1.0
        ],
        "roughnessFactor": 0.1
      }
    },
    {
      "doubleSided": true,
      "name": "wood",
      "pbrMetallicRoughness": {
        "baseColorTexture": {
          "index": 0
        },
        "metallicFactor": 0.0,
        "roughnessFactor": 0.3
      }
    }
  ],
  "meshes": [
    {
      "name": "Object_0",
      "primitives": [
        {
          "attributes": {
            "NORMAL": 1,
            "POSITION": 0,
            "TEXCOORD_0": 2,
            "TEXCOORD_1": 3
          },
          "indices": 4,
          "material": 0,
          "mode": 4
        }
      ]
    },
    {
      "name": "Object_1",
      "primitives": [
        {
          "attributes": {
            "NORMAL": 6,
            "POSITION": 5,
            "TEXCOORD_0": 7,
            "TEXCOORD_1": 8,
            "TEXCOORD_2": 9
          },
          "indices": 10,
          "material": 1,
          "mode": 4
        }
      ]
    }
  ],
  "nodes": [
    {
      "children": [
        1
      ],
      "matrix": [
        1.0,
        0.0,
        0.0,
        0.0,
        0.0,
        2.220446049250313e-16,
        -1.0,
        0.0,
        0.0,
        1.0,
        2.220446049250313e-16,
        0.0,
        0.0,
        0.0,
        0.0,
        1.0
      ],
      "name": "Sketchfab_model"
    },
    {
      "children": [
        2
      ],
      "name": "root"
    },
    {
      "children": [
        3
      ],
      "matrix": [
        1.0,
        0.0,
        0.0,
        0.0,
        0.0,
        2.220446049250313e-16,
        1.0,
        0.0,
        0.0,
        -1.0,
        2.220446049250313e-16,
        0.0,
        0.0,
        0.0,
        0.0,
        1.0
      ],
      "name": "GLTF_SceneRootNode"
    },
    {
      "children": [
        4,
        5
      ],
      "matrix": [
        0.0,
        0.0,
        1.0,
        0.0,
        -0.0,
        1.0,
        0.0,
        0.0,
        -1.0,
        -0.0,
        0.0,
        0.0,
        0.0,
        0.0,
        0.0,
        1.0
      ],
      "name": "Dog water and food rack_1"
    },
    {
      "mesh": 0,
      "name": "Object_4"
    },
    {
      "mesh": 1,
      "name": "Object_5"
    }
  ],
  "samplers": [
    {
      "magFilter": 9729,
      "minFilter": 9987,
      "wrapS": 10497,
      "wrapT": 10497
    }
  ],
  "scene": 0,
  "scenes": [
    {
      "name": "Sketchfab_Scene",
      "nodes": [
        0
      ]
    }
  ],
  "textures": [
    {
      "sampler": 0,
      "source": 0
    }
  ]
}
