{
  "accessors": [
    {
      "bufferView": 2,
      "componentType": 5126,
      "count": 65532,
      "max": [
        -0.49389201402664185,
        5.8385200500488281,
        -0.39563500881195068
      ],
      "min": [
        -1.5460929870605469,
        4.8465590476989746,
        -1.5140680074691772
      ],
      "type": "VEC3"
    },
    {
      "bufferView": 2,
      "byteOffset": 786384,
      "componentType": 5126,
      "count": 65532,
      "max": [
        0.99984413385391235,
        0.99998742341995239,
        0.99999839067459106
      ],
      "min": [
        -0.99990600347518921,
        -0.99992364645004272,
        -0.99990993738174438
      ],
      "type": "VEC3"
    },
    {
      "bufferView": 1,
      "componentType": 5126,
      "count": 65532,
      "max": [
        1,
        0.93795901536941528
      ],
      "min": [
        4.9999998736893758e-05,
        0
      ],
      "type": "VEC2"
    },
    {
      "bufferView": 0,
      "componentType": 5125,
      "count": 369993,
      "max": [
        65531
      ],
      "min": [
        0
      ],
      "type": "SCALAR"
    },
    {
      "bufferView": 2,
      "byteOffset": 1572768,
      "componentType": 5126,
      "count": 32238,
      "max": [
        -1.0033450126647949,
        5.3618159294128418,
        -0.32451701164245605
      ],
      "min": [
        -1.6055710315704346,
        4.7240328788757324,
        -0.86606699228286743
      ],
      "type": "VEC3"
    },
    {
      "bufferView": 2,
      "byteOffset": 1959624,
      "componentType": 5126,
      "count": 32238,
      "max": [
        0.99984413385391235,
        0.9997255802154541,
        0.99995428323745728
      ],
      "min": [
        -0.99991977214813232,
        -0.99998438358306885,
        -0.99964374303817749
      ],
      "type": "VEC3"
    },
    {
      "bufferView": 1,
      "byteOffset": 524256,
      "componentType": 5126,
      "count": 32238,
      "max": [
        0.80869001150131226,
        0.93291002511978149
      ],
      "min": [
        0,
        0.00014400000509340316
      ],
      "type": "VEC2"
    },
    {
      "bufferView": 0,
      "byteOffset": 1479972,
      "componentType": 5125,
      "count": 170007,
      "max": [
        32237
      ],
      "min": [
        0
      ],
      "type": "SCALAR"
    }
  ],
  "asset": {
    "extras": {
      "author": "3DScanX (https://sketchfab.com/3dscanx)",
      "license": "CC-BY-4.0 (http://creativecommons.org/licenses/by/4.0/)",
      "source": "https://sketchfab.com/3d-models/dog-toy-rope-3d-scan-c45af57d9a3c47a58da36db2a5d425dd",
      "title": "Dog Toy Rope 3D Scan"
    },
    "generator": "Sketchfab-9.77.0",
    "version": "2.0"
  },
  "bufferViews": [
    {
      "buffer": 0,
      "byteLength": 2160000,
      "byteOffset": 0,
      "name": "floatBufferViews",
      "target": 34963
    },
    {
      "buffer": 0,
      "byteLength": 782160,
      "byteOffset": 2160000,
      "byteStride": 8,
      "name": "floatBufferViews",
      "target": 34962
    },
    {
      "buffer": 0,
      "byteLength": 2346480,
      "byteOffset": 2942160,
      "byteStride": 12,
      "name": "floatBufferViews",
      "target": 34962
    }
  ],
  "buffers": [
    {
      "byteLength": 5288640,
      "uri": "scene.bin"
    }
  ],
  "images": [
    {
      "uri": "textures/Dog_Toy_Rope_01_HQ_baseColor.jpeg"
    }
  ],
  "materials": [
    {
      "doubleSided": true,
      "emissiveFactor": [
        0,
        0,
        0
      ],
      "name": "Dog_Toy_Rope_01_HQ",
      "pbrMetallicRoughness": {
        "baseColorFactor": [
          1,
          1,
          1,
          1
        ],
        "baseColorTexture": {
          "index": 0,
          "texCoord": 0
        },
        "metallicFactor": 0,
        "roughnessFactor": 1
      }
    }
  ],
  "meshes": [
    {
      "primitives": [
        {
          "attributes": {
            "NORMAL": 1,
            "POSITION": 0,
            "TEXCOORD_0": 2
          },
          "indices": 3,
          "material": 0,
          "mode": 4
        }
      ]
    },
    {
      "primitives": [
        {
          "attributes": {
            "NORMAL": 5,
            "POSITION": 4,
            "TEXCOORD_0": 6
          },
          "indices": 7,
          "material": 0,
          "mode": 4
        }
      ]
    }
  ],
  "nodes": [
    {
      "children": [
        1
      ],
      "name": "RootNode (gltf orientation matrix)",
      "rotation": [
        -0.70710678118654746,
        -0,
        -0,
        0.70710678118654757
      ]
    },
    {
      "children": [
        2
      ],
      "matrix": [
        0.3607117235660553,
        -0.93216025829315186,
        -0.031053405255079269,
        0,
        0.68509399890899658,
        0.2422197163105011,
        0.68700498342514038,
        0,
        -0.63287699222564697,
        -0.26908525824546814,
        0.72598886489868164,
        0,
        -4.8710498809814453,
        2.7761595249176025,
        -3.9127562046051025,
        1
      ],
      "name": "RootNode (model correction matrix)"
    },
    {
      "children": [
        3,
        4
      ],
      "name": "Dog_Toy_Rope_01_HQ.obj.cleaner.materialmerger.gles"
    },
    {
      "mesh": 0,
      "name": ""
    },
    {
      "mesh": 1,
      "name": ""
    }
  ],
  "samplers": [
    {
      "magFilter": 9729,
      "minFilter": 9987,
      "wrapS": 10497,
      "wrapT": 10497
    }
  ],
  "scene": 0,
  "scenes": [
    {
      "name": "OSG_Scene",
      "nodes": [
        0
      ]
    }
  ],
  "textures": [
    {
      "sampler": 0,
      "source": 0
    }
  ]
}

