{
  "accessors": [
    {
      "bufferView": 3,
      "componentType": 5126,
      "count": 4040,
      "max": [
        93.556808471679688,
        15.656696319580078,
        105.49968719482422
      ],
      "min": [
        -93.556816101074219,
        -15.656689643859863,
        -92.823707580566406
      ],
      "type": "VEC3"
    },
    {
      "bufferView": 3,
      "byteOffset": 48480,
      "componentType": 5126,
      "count": 4040,
      "max": [
        0.99998182058334351,
        0.99999994039535522,
        0.99999994039535522
      ],
      "min": [
        -0.99998182058334351,
        -0.99999994039535522,
        -0.99999994039535522
      ],
      "type": "VEC3"
    },
    {
      "bufferView": 4,
      "componentType": 5126,
      "count": 4040,
      "max": [
        0.99979448318481445,
        0.99999994039535522,
        0.99968838691711426,
        1
      ],
      "min": [
        -0.99981844425201416,
        -0.99999994039535522,
        -0.99999880790710449,
        -1
      ],
      "type": "VEC4"
    },
    {
      "bufferView": 2,
      "componentType": 5126,
      "count": 4040,
      "max": [
        0.9862058162689209,
        0.99248790740966797
      ],
      "min": [
        0.006451040506362915,
        0.011571556329727173
      ],
      "type": "VEC2"
    },
    {
      "bufferView": 1,
      "componentType": 5125,
      "count": 11388,
      "max": [
        4039
      ],
      "min": [
        0
      ],
      "type": "SCALAR"
    },
    {
      "bufferView": 5,
      "componentType": 5126,
      "count": 4,
      "max": [
        1,
        0,
        0,
        0,
        0,
        1,
        0,
        0,
        0,
        0,
        1,
        0,
        0,
        0.36325991153717041,
        0,
        1
      ],
      "min": [
        0.017003213986754417,
        0,
        0,
        0,
        0,
        0.017003213986754417,
        0,
        0,
        0,
        0,
        0.017003213986754417,
        0,
        0,
        0,
        0,
        1
      ],
      "type": "MAT4"
    },
    {
      "bufferView": 0,
      "componentType": 5123,
      "count": 4040,
      "max": [
        1,
        1,
        1,
        1
      ],
      "min": [
        1,
        1,
        1,
        1
      ],
      "type": "VEC4"
    },
    {
      "bufferView": 4,
      "byteOffset": 64640,
      "componentType": 5126,
      "count": 4040,
      "max": [
        1,
        0,
        0,
        0
      ],
      "min": [
        1,
        0,
        0,
        0
      ],
      "type": "VEC4"
    }
  ],
  "asset": {
    "extras": {
      "author": "ellielovelacevr (https://sketchfab.com/ellielovelacevr)",
      "license": "CC-BY-4.0 (http://creativecommons.org/licenses/by/4.0/)",
      "source": "https://sketchfab.com/3d-models/studded-punk-collar-a4cb561a34f8467096b4f8cadbb00ebb",
      "title": "Studded Punk Collar"
    },
    "generator": "Sketchfab-9.24.0",
    "version": "2.0"
  },
  "bufferViews": [
    {
      "buffer": 0,
      "byteLength": 32320,
      "byteOffset": 0,
      "byteStride": 8,
      "name": "shortBufferViews",
      "target": 34962
    },
    {
      "buffer": 0,
      "byteLength": 45552,
      "byteOffset": 32320,
      "name": "floatBufferViews",
      "target": 34963
    },
    {
      "buffer": 0,
      "byteLength": 32320,
      "byteOffset": 77872,
      "byteStride": 8,
      "name": "floatBufferViews",
      "target": 34962
    },
    {
      "buffer": 0,
      "byteLength": 96960,
      "byteOffset": 110192,
      "byteStride": 12,
      "name": "floatBufferViews",
      "target": 34962
    },
    {
      "buffer": 0,
      "byteLength": 129280,
      "byteOffset": 207152,
      "byteStride": 16,
      "name": "floatBufferViews",
      "target": 34962
    },
    {
      "buffer": 0,
      "byteLength": 256,
      "byteOffset": 336432,
      "byteStride": 64,
      "name": "floatBufferViews"
    }
  ],
  "buffers": [
    {
      "byteLength": 336688,
      "uri": "scene.bin"
    }
  ],
  "images": [
    {
      "uri": "textures/Collar_baseColor.jpeg"
    },
    {
      "uri": "textures/Collar_metallicRoughness.png"
    },
    {
      "uri": "textures/Collar_normal.png"
    }
  ],
  "materials": [
    {
      "doubleSided": true,
      "name": "Collar",
      "normalTexture": {
        "index": 2,
        "scale": 1,
        "texCoord": 0
      },
      "pbrMetallicRoughness": {
        "baseColorFactor": [
          1,
          1,
          1,
          1
        ],
        "baseColorTexture": {
          "index": 0,
          "texCoord": 0
        },
        "metallicFactor": 1,
        "metallicRoughnessTexture": {
          "index": 1,
          "texCoord": 0
        },
        "roughnessFactor": 1
      }
    }
  ],
  "meshes": [
    {
      "name": "Collar_Collar_0",
      "primitives": [
        {
          "attributes": {
            "JOINTS_0": 6,
            "NORMAL": 1,
            "POSITION": 0,
            "TANGENT": 2,
            "TEXCOORD_0": 3,
            "WEIGHTS_0": 7
          },
          "indices": 4,
          "material": 0,
          "mode": 4
        }
      ]
    }
  ],
  "nodes": [
    {
      "children": [
        1
      ],
      "name": "RootNode (gltf orientation matrix)",
      "rotation": [
        -0.70710678118654746,
        -0,
        -0,
        0.70710678118654757
      ]
    },
    {
      "children": [
        2
      ],
      "name": "RootNode (model correction matrix)"
    },
    {
      "children": [
        3
      ],
      "matrix": [
        1,
        0,
        0,
        0,
        0,
        0,
        1,
        0,
        0,
        -1,
        0,
        0,
        0,
        0,
        0,
        1
      ],
      "name": "9a37059c79e844378a30b125b3691906.fbx"
    },
    {
      "children": [
        4
      ],
      "name": "RootNode"
    },
    {
      "children": [
        5
      ],
      "matrix": [
        58.812408447265625,
        0,
        0,
        0,
        0,
        -9.5817575408984004e-06,
        -58.812408447264851,
        0,
        0,
        58.812408447264851,
        -9.5817575408984004e-06,
        0,
        0,
        -21.364191055297852,
        0,
        1
      ],
      "name": "Armature"
    },
    {
      "children": [
        6,
        8,
        7
      ],
      "name": ""
    },
    {
      "children": [
        9
      ],
      "name": "_rootJoint"
    },
    {
      "matrix": [
        3.4326994200471904e-05,
        -176.30059525778051,
        0,
        0,
        2.5562585463902294e-05,
        4.9772192866700831e-12,
        169.29333967425919,
        0,
        -169.29333967425919,
        -3.2962631128270956e-05,
        2.5562585463903263e-05,
        0,
        0,
        2.7400365070207044e-06,
        107.32028084235935,
        1
      ],
      "name": ""
    },
    {
      "mesh": 0,
      "name": "",
      "skin": 0
    },
    {
      "children": [
        10
      ],
      "name": "Neck_00",
      "rotation": [
        0.7071068286895752,
        0,
        0,
        0.70710670948028564
      ]
    },
    {
      "children": [
        11
      ],
      "name": "Head_01",
      "rotation": [
        -2.9387358770557188e-39,
        1.1920927533992653e-07,
        0,
        1
      ],
      "scale": [
        1,
        0.99999994039535522,
        1
      ],
      "translation": [
        0,
        1,
        -2.9387358770557188e-39
      ]
    },
    {
      "name": "Head_end_02",
      "rotation": [
        -2.9387358770557188e-39,
        -0,
        0,
        1
      ],
      "translation": [
        0,
        2.3490810394287109,
        -5.8774717541114375e-39
      ]
    }
  ],
  "samplers": [
    {
      "magFilter": 9729,
      "minFilter": 9987,
      "wrapS": 10497,
      "wrapT": 10497
    }
  ],
  "scene": 0,
  "scenes": [
    {
      "name": "OSG_Scene",
      "nodes": [
        0
      ]
    }
  ],
  "skins": [
    {
      "inverseBindMatrices": 5,
      "joints": [
        6,
        9,
        10,
        11
      ],
      "skeleton": 6
    }
  ],
  "textures": [
    {
      "sampler": 0,
      "source": 0
    },
    {
      "sampler": 0,
      "source": 1
    },
    {
      "sampler": 0,
      "source": 2
    }
  ]
}

