{
  "accessors": [
    {
      "bufferView": 2,
      "componentType": 5126,
      "count": 16916,
      "max": [
        1.6539819240570068,
        9.8475189208984375,
        -0.61546146869659424
      ],
      "min": [
        -0.23204775154590607,
        7.9547500610351562,
        -0.91287463903427124
      ],
      "type": "VEC3"
    },
    {
      "bufferView": 2,
      "byteOffset": 202992,
      "componentType": 5126,
      "count": 16916,
      "max": [
        0.99997210502624512,
        0.99573051929473877,
        0.81789225339889526
      ],
      "min": [
        -0.99283534288406372,
        -0.9907609224319458,
        -0.99999523162841797
      ],
      "type": "VEC3"
    },
    {
      "bufferView": 1,
      "componentType": 5126,
      "count": 16916,
      "max": [
        0.99966627359390259,
        0.99988758563995361
      ],
      "min": [
        0.00010139816731680185,
        0.00023471342865377665
      ],
      "type": "VEC2"
    },
    {
      "bufferView": 0,
      "componentType": 5125,
      "count": 52602,
      "max": [
        16915
      ],
      "min": [
        0
      ],
      "type": "SCALAR"
    },
    {
      "bufferView": 2,
      "byteOffset": 405984,
      "componentType": 5126,
      "count": 16834,
      "max": [
        1.0492681264877319,
        1.0529886484146118,
        0.13599005341529846
      ],
      "min": [
        -1.0473401546478271,
        -1.0444108247756958,
        -0.10841444879770279
      ],
      "type": "VEC3"
    },
    {
      "bufferView": 2,
      "byteOffset": 607992,
      "componentType": 5126,
      "count": 16834,
      "max": [
        0.99997341632843018,
        0.99997580051422119,
        0.89961278438568115
      ],
      "min": [
        -0.99996829032897949,
        -0.99995994567871094,
        -0.99998652935028076
      ],
      "type": "VEC3"
    },
    {
      "bufferView": 1,
      "byteOffset": 135328,
      "componentType": 5126,
      "count": 16834,
      "max": [
        0.97834694385528564,
        0.99978506565093994
      ],
      "min": [
        0.00016984640387818217,
        0.00021745249978266656
      ],
      "type": "VEC2"
    },
    {
      "bufferView": 0,
      "byteOffset": 210408,
      "componentType": 5125,
      "count": 52284,
      "max": [
        16833
      ],
      "min": [
        0
      ],
      "type": "SCALAR"
    }
  ],
  "asset": {
    "extras": {
      "author": "JoelGodin (https://sketchfab.com/JoelGodin)",
      "license": "CC-BY-4.0 (http://creativecommons.org/licenses/by/4.0/)",
      "source": "https://sketchfab.com/3d-models/cushion-abeafbc37d6446058e1be53e67e0baef",
      "title": "Cushion"
    },
    "generator": "Sketchfab-9.94.0",
    "version": "2.0"
  },
  "bufferViews": [
    {
      "buffer": 0,
      "byteLength": 419544,
      "byteOffset": 0,
      "name": "floatBufferViews",
      "target": 34963
    },
    {
      "buffer": 0,
      "byteLength": 270000,
      "byteOffset": 419544,
      "byteStride": 8,
      "name": "floatBufferViews",
      "target": 34962
    },
    {
      "buffer": 0,
      "byteLength": 810000,
      "byteOffset": 689544,
      "byteStride": 12,
      "name": "floatBufferViews",
      "target": 34962
    }
  ],
  "buffers": [
    {
      "byteLength": 1499544,
      "uri": "scene.bin"
    }
  ],
  "extensionsRequired": [
    "KHR_materials_pbrSpecularGlossiness"
  ],
  "extensionsUsed": [
    "KHR_materials_pbrSpecularGlossiness"
  ],
  "materials": [
    {
      "doubleSided": true,
      "emissiveFactor": [
        0,
        0,
        0
      ],
      "extensions": {
        "KHR_materials_pbrSpecularGlossiness": {
          "diffuseFactor": [
            0.31805028280036751,
            0.042467322463248129,
            0.042467322463248129,
            1
          ],
          "glossinessFactor": 0.41459332761797052,
          "specularFactor": [
            0,
            0,
            0
          ]
        }
      },
      "name": "Material.001"
    }
  ],
  "meshes": [
    {
      "primitives": [
        {
          "attributes": {
            "NORMAL": 1,
            "POSITION": 0,
            "TEXCOORD_0": 2
          },
          "indices": 3,
          "material": 0,
          "mode": 4
        }
      ]
    },
    {
      "primitives": [
        {
          "attributes": {
            "NORMAL": 5,
            "POSITION": 4,
            "TEXCOORD_0": 6
          },
          "indices": 7,
          "material": 0,
          "mode": 4
        }
      ]
    }
  ],
  "nodes": [
    {
      "children": [
        1
      ],
      "name": "RootNode (gltf orientation matrix)",
      "rotation": [
        -0.70710678118654746,
        -0,
        -0,
        0.70710678118654757
      ]
    },
    {
      "children": [
        2
      ],
      "matrix": [
        0.23225073516368866,
        0,
        0,
        0,
        0,
        0.23225073516368866,
        0,
        0,
        0,
        0,
        0.23225073516368866,
        0,
        0,
        0,
        0,
        1
      ],
      "name": "RootNode (model correction matrix)"
    },
    {
      "children": [
        3
      ],
      "name": "root"
    },
    {
      "children": [
        4,
        6
      ],
      "matrix": [
        1,
        0,
        0,
        0,
        0,
        2.2204460492503131e-16,
        1,
        0,
        0,
        -1,
        2.2204460492503131e-16,
        0,
        0,
        0,
        0,
        1
      ],
      "name": "GLTF_SceneRootNode"
    },
    {
      "children": [
        5
      ],
      "matrix": [
        1,
        0,
        0,
        0,
        0,
        -1.685873969314855e-07,
        0.99999999999998579,
        0,
        0,
        -0.99999999999998579,
        -1.685873969314855e-07,
        0,
        0,
        -0.020363319665193558,
        0,
        1
      ],
      "name": "Retopo_F_cloth_panel.004_2"
    },
    {
      "mesh": 0,
      "name": ""
    },
    {
      "children": [
        7
      ],
      "matrix": [
        0.96031910181045532,
        0,
        0,
        0,
        0,
        -1.6189769759780687e-07,
        0.96031910181044167,
        0,
        0,
        -0.96031910181044167,
        -1.6189769759780687e-07,
        0,
        0.71404415369033813,
        0.58483415842056274,
        8.8944797515869141,
        1
      ],
      "name": "Retopo_F_cloth_panel_3"
    },
    {
      "mesh": 1,
      "name": ""
    }
  ],
  "scene": 0,
  "scenes": [
    {
      "name": "OSG_Scene",
      "nodes": [
        0
      ]
    }
  ]
}

